  0
SECTION
  2
HEADER
  9
$ACADVER
  1
AC1006
  9
$EXTMIN
 10
0.000000
 20
0.000000
 30
0.000000
  9
$EXTMAX
 10
158.000000
 20
95.000000
 30
0.000000
  0
ENDSEC
  0
SECTION
  2
ENTITIES
  0
POLYLINE
  8
0
 66
1
 70
1
  0
VERTEX
  8
0
 10
84.534492
 20
66.559622
 42
0.000000
  0
VERTEX
  8
0
 10
74.568983
 20
55.247140
 42
0.000000
  0
VERTEX
  8
0
 10
67.534492
 20
54.620439
 42
0.012702
  0
VERTEX
  8
0
 10
63.836938
 20
54.196120
 42
0.043845
  0
VERTEX
  8
0
 10
61.489274
 20
53.653128
 42
0.065883
  0
VERTEX
  8
0
 10
59.822478
 20
52.855148
 42
0.067389
  0
VERTEX
  8
0
 10
58.434901
 20
51.656065
 42
-0.071715
  0
VERTEX
  8
0
 10
56.980667
 20
50.421093
 42
-0.068914
  0
VERTEX
  8
0
 10
55.217505
 20
49.626833
 42
-0.041215
  0
VERTEX
  8
0
 10
52.613840
 20
49.090213
 42
-0.009417
  0
VERTEX
  8
0
 10
48.136589
 20
48.631768
 42
0.013639
  0
VERTEX
  8
0
 10
44.684585
 20
48.248830
 42
0.012138
  0
VERTEX
  8
0
 10
41.120871
 20
47.666291
 42
0.012277
  0
VERTEX
  8
0
 10
37.941297
 20
46.985737
 42
0.036316
  0
VERTEX
  8
0
 10
35.814827
 20
46.309232
 42
0.009104
  0
VERTEX
  8
0
 10
33.454987
 20
45.314797
 42
0.116107
  0
VERTEX
  8
0
 10
32.694122
 20
44.738540
 42
0.346183
  0
VERTEX
  8
0
 10
32.679972
 20
44.169807
 42
0.074578
  0
VERTEX
  8
0
 10
33.429741
 20
43.427716
 42
0.097899
  0
VERTEX
  8
0
 10
35.785783
 20
42.329468
 42
0.013459
  0
VERTEX
  8
0
 10
41.103011
 20
41.173314
 42
0.016539
  0
VERTEX
  8
0
 10
46.820045
 20
40.285215
 42
0.030268
  0
VERTEX
  8
0
 10
51.527194
 20
40.000000
 42
-0.037395
  0
VERTEX
  8
0
 10
53.450704
 20
39.855939
 42
-0.054437
  0
VERTEX
  8
0
 10
55.093720
 20
39.421893
 42
-0.056142
  0
VERTEX
  8
0
 10
56.567012
 20
38.656365
 42
-0.043179
  0
VERTEX
  8
0
 10
57.980057
 20
37.519107
 42
0.055017
  0
VERTEX
  8
0
 10
59.605447
 20
36.273032
 42
0.053607
  0
VERTEX
  8
0
 10
61.477318
 20
35.398582
 42
0.039869
  0
VERTEX
  8
0
 10
63.937935
 20
34.769709
 42
0.014886
  0
VERTEX
  8
0
 10
67.471031
 20
34.269107
 42
0.000000
  0
VERTEX
  8
0
 10
74.372511
 20
33.500000
 42
0.000000
  0
VERTEX
  8
0
 10
84.355135
 20
22.500000
 42
0.004438
  0
VERTEX
  8
0
 10
90.282445
 20
16.083982
 42
0.032380
  0
VERTEX
  8
0
 10
93.341377
 20
13.226534
 42
0.069726
  0
VERTEX
  8
0
 10
95.658768
 20
11.814033
 42
0.082162
  0
VERTEX
  8
0
 10
98.149196
 20
11.193464
 42
0.028334
  0
VERTEX
  8
0
 10
100.315584
 20
11.142329
 42
0.105947
  0
VERTEX
  8
0
 10
101.629778
 20
11.469736
 42
0.110520
  0
VERTEX
  8
0
 10
102.664394
 20
12.298569
 42
0.032225
  0
VERTEX
  8
0
 10
103.841901
 20
13.980424
 42
0.034139
  0
VERTEX
  8
0
 10
104.684180
 20
15.605711
 42
0.011700
  0
VERTEX
  8
0
 10
105.684451
 20
18.063723
 42
0.011567
  0
VERTEX
  8
0
 10
106.664820
 20
20.835674
 42
0.013116
  0
VERTEX
  8
0
 10
107.472631
 20
23.536960
 42
-0.010432
  0
VERTEX
  8
0
 10
108.199005
 20
26.014271
 42
-0.016495
  0
VERTEX
  8
0
 10
108.935138
 20
28.101482
 42
-0.010614
  0
VERTEX
  8
0
 10
109.621902
 20
29.756752
 42
-0.297402
  0
VERTEX
  8
0
 10
109.994685
 20
30.000000
 42
-0.176713
  0
VERTEX
  8
0
 10
110.450683
 20
29.833643
 42
-0.009933
  0
VERTEX
  8
0
 10
111.601869
 20
28.825000
 42
-0.014278
  0
VERTEX
  8
0
 10
112.940376
 20
27.532495
 42
-0.009904
  0
VERTEX
  8
0
 10
114.381035
 20
26.000000
 42
0.022124
  0
VERTEX
  8
0
 10
116.221885
 20
24.135271
 42
0.048301
  0
VERTEX
  8
0
 10
117.817975
 20
22.919209
 42
0.062669
  0
VERTEX
  8
0
 10
119.315514
 20
22.233542
 42
0.076197
  0
VERTEX
  8
0
 10
120.839110
 20
22.000000
 42
0.054757
  0
VERTEX
  8
0
 10
122.411237
 20
22.172689
 42
0.142862
  0
VERTEX
  8
0
 10
123.398224
 20
22.715237
 42
0.102753
  0
VERTEX
  8
0
 10
124.128169
 20
23.830361
 42
0.020930
  0
VERTEX
  8
0
 10
124.903685
 20
26.072865
 42
0.032717
  0
VERTEX
  8
0
 10
125.562611
 20
28.942798
 42
0.129932
  0
VERTEX
  8
0
 10
125.386953
 20
30.726866
 42
0.085329
  0
VERTEX
  8
0
 10
124.313758
 20
32.572016
 42
0.009549
  0
VERTEX
  8
0
 10
121.112920
 20
36.250000
 42
0.041379
  0
VERTEX
  8
0
 10
119.963042
 20
37.327346
 42
0.040187
  0
VERTEX
  8
0
 10
118.640639
 20
38.212388
 42
0.042977
  0
VERTEX
  8
0
 10
117.321239
 20
38.807252
 42
0.084618
  0
VERTEX
  8
0
 10
116.190464
 20
39.000000
 42
-0.020353
  0
VERTEX
  8
0
 10
114.970105
 20
39.049698
 42
-0.176588
  0
VERTEX
  8
0
 10
114.484211
 20
39.273112
 42
-0.325043
  0
VERTEX
  8
0
 10
114.420694
 20
39.662471
 42
-0.056533
  0
VERTEX
  8
0
 10
114.853762
 20
40.323794
 42
0.056170
  0
VERTEX
  8
0
 10
115.303618
 20
41.009670
 42
0.125475
  0
VERTEX
  8
0
 10
115.437937
 20
41.614209
 42
0.128718
  0
VERTEX
  8
0
 10
115.265280
 20
42.199108
 42
0.060657
  0
VERTEX
  8
0
 10
114.776206
 20
42.823794
 42
-0.088282
  0
VERTEX
  8
0
 10
114.378249
 20
43.394045
 42
-0.357547
  0
VERTEX
  8
0
 10
114.477016
 20
43.775148
 42
-0.132181
  0
VERTEX
  8
0
 10
115.093726
 20
44.012654
 42
-0.016173
  0
VERTEX
  8
0
 10
116.550000
 20
44.118315
 42
0.000000
  0
VERTEX
  8
0
 10
119.500000
 20
44.236630
 42
0.000000
  0
VERTEX
  8
0
 10
116.500000
 20
44.889518
 42
-0.018906
  0
VERTEX
  8
0
 10
115.172085
 20
45.231557
 42
-0.106117
  0
VERTEX
  8
0
 10
114.532604
 20
45.582027
 42
-0.330605
  0
VERTEX
  8
0
 10
114.449022
 20
45.956814
 42
-0.148475
  0
VERTEX
  8
0
 10
114.798558
 20
46.360231
 42
0.063117
  0
VERTEX
  8
0
 10
115.372668
 20
46.832238
 42
0.176668
  0
VERTEX
  8
0
 10
115.575669
 20
47.303298
 42
0.148076
  0
VERTEX
  8
0
 10
115.443234
 20
47.851961
 42
0.040487
  0
VERTEX
  8
0
 10
114.926114
 20
48.589028
 42
-0.045135
  0
VERTEX
  8
0
 10
114.419594
 20
49.325423
 42
-0.328638
  0
VERTEX
  8
0
 10
114.469013
 20
49.726061
 42
-0.187452
  0
VERTEX
  8
0
 10
114.947643
 20
49.952810
 42
-0.017957
  0
VERTEX
  8
0
 10
116.261193
 20
50.000000
 42
0.094132
  0
VERTEX
  8
0
 10
117.577680
 20
50.250063
 42
0.050950
  0
VERTEX
  8
0
 10
119.047440
 20
51.010075
 42
0.040926
  0
VERTEX
  8
0
 10
120.652616
 20
52.258051
 42
0.023361
  0
VERTEX
  8
0
 10
122.383638
 20
54.002881
 42
0.011199
  0
VERTEX
  8
0
 10
124.946287
 20
56.970409
 42
0.103519
  0
VERTEX
  8
0
 10
125.731352
 20
58.465157
 42
0.131754
  0
VERTEX
  8
0
 10
125.754923
 20
60.004147
 42
0.022190
  0
VERTEX
  8
0
 10
124.902175
 20
62.850777
 42
0.138759
  0
VERTEX
  8
0
 10
123.176593
 20
65.313484
 42
0.180941
  0
VERTEX
  8
0
 10
120.590456
 20
66.187312
 42
0.130965
  0
VERTEX
  8
0
 10
117.386709
 20
65.222153
 42
0.062069
  0
VERTEX
  8
0
 10
114.000000
 20
62.500000
 42
-0.009030
  0
VERTEX
  8
0
 10
112.652472
 20
61.159032
 42
-0.013071
  0
VERTEX
  8
0
 10
111.410830
 20
60.028125
 42
-0.008695
  0
VERTEX
  8
0
 10
110.345774
 20
59.139693
 42
-0.171101
  0
VERTEX
  8
0
 10
109.949507
 20
59.000000
 42
-0.301670
  0
VERTEX
  8
0
 10
109.620166
 20
59.218597
 42
-0.006288
  0
VERTEX
  8
0
 10
108.842925
 20
61.129688
 42
-0.012460
  0
VERTEX
  8
0
 10
107.991602
 20
63.470795
 42
-0.007793
  0
VERTEX
  8
0
 10
107.106644
 20
66.250000
 42
0.020452
  0
VERTEX
  8
0
 10
105.069376
 20
72.129026
 42
0.074129
  0
VERTEX
  8
0
 10
103.099756
 20
75.549451
 42
0.120914
  0
VERTEX
  8
0
 10
100.794731
 20
77.337225
 42
0.109983
  0
VERTEX
  8
0
 10
97.839707
 20
77.936052
 42
0.103855
  0
VERTEX
  8
0
 10
95.614637
 20
77.424178
 42
0.068689
  0
VERTEX
  8
0
 10
93.399286
 20
76.003437
 42
0.030996
  0
VERTEX
  8
0
 10
90.369625
 20
73.069299
 42
0.004316
  0
SEQEND
  0
ENDSEC
  0
EOF
